<mxfile host="drawio-plugin" modified="2022-02-24T16:10:19.901Z" agent="5.0 (Macintosh; Intel Mac OS X 12_2_1) AppleWebKit/537.36 (KHTML, like Gecko) Chrome/89.0.4389.90 Safari/537.36" etag="JHtUlClnv3QIw26Ge9re" version="14.7.4" type="embed" pages="2"><diagram id="23iRSUPoRavnBvh4doch" name="Q09"><mxGraphModel dx="805" dy="493" grid="1" gridSize="10" guides="1" tooltips="1" connect="1" arrows="1" fold="1" page="1" pageScale="1" pageWidth="827" pageHeight="1169" math="0" shadow="0"><root><mxCell id="0"/><mxCell id="1" parent="0"/><mxCell id="6" value="" style="shape=table;html=1;whiteSpace=wrap;startSize=0;container=1;collapsible=0;childLayout=tableLayout;" vertex="1" parent="1"><mxGeometry x="130" y="270" width="60" height="200" as="geometry"/></mxCell><mxCell id="7" value="" style="shape=partialRectangle;html=1;whiteSpace=wrap;collapsible=0;dropTarget=0;pointerEvents=0;fillColor=none;top=0;left=0;bottom=0;right=0;points=[[0,0.5],[1,0.5]];portConstraint=eastwest;" vertex="1" parent="6"><mxGeometry width="60" height="40" as="geometry"/></mxCell><mxCell id="8" value="e" style="shape=partialRectangle;html=1;whiteSpace=wrap;connectable=0;overflow=hidden;fillColor=none;top=0;left=0;bottom=0;right=0;" vertex="1" parent="7"><mxGeometry width="60" height="40" as="geometry"/></mxCell><mxCell id="9" value="" style="shape=partialRectangle;html=1;whiteSpace=wrap;collapsible=0;dropTarget=0;pointerEvents=0;fillColor=none;top=0;left=0;bottom=0;right=0;points=[[0,0.5],[1,0.5]];portConstraint=eastwest;" vertex="1" parent="6"><mxGeometry y="40" width="60" height="40" as="geometry"/></mxCell><mxCell id="10" value="d" style="shape=partialRectangle;html=1;whiteSpace=wrap;connectable=0;overflow=hidden;fillColor=none;top=0;left=0;bottom=0;right=0;" vertex="1" parent="9"><mxGeometry width="60" height="40" as="geometry"/></mxCell><mxCell id="11" value="" style="shape=partialRectangle;html=1;whiteSpace=wrap;collapsible=0;dropTarget=0;pointerEvents=0;fillColor=none;top=0;left=0;bottom=0;right=0;points=[[0,0.5],[1,0.5]];portConstraint=eastwest;" vertex="1" parent="6"><mxGeometry y="80" width="60" height="40" as="geometry"/></mxCell><mxCell id="12" value="c" style="shape=partialRectangle;html=1;whiteSpace=wrap;connectable=0;overflow=hidden;fillColor=none;top=0;left=0;bottom=0;right=0;" vertex="1" parent="11"><mxGeometry width="60" height="40" as="geometry"/></mxCell><mxCell id="13" value="" style="shape=partialRectangle;html=1;whiteSpace=wrap;collapsible=0;dropTarget=0;pointerEvents=0;fillColor=none;top=0;left=0;bottom=0;right=0;points=[[0,0.5],[1,0.5]];portConstraint=eastwest;" vertex="1" parent="6"><mxGeometry y="120" width="60" height="40" as="geometry"/></mxCell><mxCell id="14" value="b" style="shape=partialRectangle;html=1;whiteSpace=wrap;connectable=0;overflow=hidden;fillColor=none;top=0;left=0;bottom=0;right=0;" vertex="1" parent="13"><mxGeometry width="60" height="40" as="geometry"/></mxCell><mxCell id="15" value="" style="shape=partialRectangle;html=1;whiteSpace=wrap;collapsible=0;dropTarget=0;pointerEvents=0;fillColor=none;top=0;left=0;bottom=0;right=0;points=[[0,0.5],[1,0.5]];portConstraint=eastwest;" vertex="1" parent="6"><mxGeometry y="160" width="60" height="40" as="geometry"/></mxCell><mxCell id="16" value="a" style="shape=partialRectangle;html=1;whiteSpace=wrap;connectable=0;overflow=hidden;fillColor=none;top=0;left=0;bottom=0;right=0;" vertex="1" parent="15"><mxGeometry width="60" height="40" as="geometry"/></mxCell><mxCell id="17" value="" style="shape=table;html=1;whiteSpace=wrap;startSize=0;container=1;collapsible=0;childLayout=tableLayout;" vertex="1" parent="1"><mxGeometry x="410" y="270" width="60" height="200" as="geometry"/></mxCell><mxCell id="18" value="" style="shape=partialRectangle;html=1;whiteSpace=wrap;collapsible=0;dropTarget=0;pointerEvents=0;fillColor=none;top=0;left=0;bottom=0;right=0;points=[[0,0.5],[1,0.5]];portConstraint=eastwest;" vertex="1" parent="17"><mxGeometry width="60" height="40" as="geometry"/></mxCell><mxCell id="19" value="" style="shape=partialRectangle;html=1;whiteSpace=wrap;connectable=0;overflow=hidden;fillColor=none;top=0;left=0;bottom=0;right=0;" vertex="1" parent="18"><mxGeometry width="60" height="40" as="geometry"/></mxCell><mxCell id="20" value="" style="shape=partialRectangle;html=1;whiteSpace=wrap;collapsible=0;dropTarget=0;pointerEvents=0;fillColor=none;top=0;left=0;bottom=0;right=0;points=[[0,0.5],[1,0.5]];portConstraint=eastwest;" vertex="1" parent="17"><mxGeometry y="40" width="60" height="40" as="geometry"/></mxCell><mxCell id="21" value="" style="shape=partialRectangle;html=1;whiteSpace=wrap;connectable=0;overflow=hidden;fillColor=none;top=0;left=0;bottom=0;right=0;" vertex="1" parent="20"><mxGeometry width="60" height="40" as="geometry"/></mxCell><mxCell id="22" value="" style="shape=partialRectangle;html=1;whiteSpace=wrap;collapsible=0;dropTarget=0;pointerEvents=0;fillColor=none;top=0;left=0;bottom=0;right=0;points=[[0,0.5],[1,0.5]];portConstraint=eastwest;" vertex="1" parent="17"><mxGeometry y="80" width="60" height="40" as="geometry"/></mxCell><mxCell id="23" value="" style="shape=partialRectangle;html=1;whiteSpace=wrap;connectable=0;overflow=hidden;fillColor=none;top=0;left=0;bottom=0;right=0;" vertex="1" parent="22"><mxGeometry width="60" height="40" as="geometry"/></mxCell><mxCell id="24" value="" style="shape=partialRectangle;html=1;whiteSpace=wrap;collapsible=0;dropTarget=0;pointerEvents=0;fillColor=none;top=0;left=0;bottom=0;right=0;points=[[0,0.5],[1,0.5]];portConstraint=eastwest;" vertex="1" parent="17"><mxGeometry y="120" width="60" height="40" as="geometry"/></mxCell><mxCell id="25" value="" style="shape=partialRectangle;html=1;whiteSpace=wrap;connectable=0;overflow=hidden;fillColor=none;top=0;left=0;bottom=0;right=0;" vertex="1" parent="24"><mxGeometry width="60" height="40" as="geometry"/></mxCell><mxCell id="26" value="" style="shape=partialRectangle;html=1;whiteSpace=wrap;collapsible=0;dropTarget=0;pointerEvents=0;fillColor=none;top=0;left=0;bottom=0;right=0;points=[[0,0.5],[1,0.5]];portConstraint=eastwest;" vertex="1" parent="17"><mxGeometry y="160" width="60" height="40" as="geometry"/></mxCell><mxCell id="27" value="" style="shape=partialRectangle;html=1;whiteSpace=wrap;connectable=0;overflow=hidden;fillColor=none;top=0;left=0;bottom=0;right=0;" vertex="1" parent="26"><mxGeometry width="60" height="40" as="geometry"/></mxCell><mxCell id="28" value="StackL" style="text;html=1;align=center;verticalAlign=middle;resizable=0;points=[];autosize=1;strokeColor=none;" vertex="1" parent="1"><mxGeometry x="145" y="490" width="50" height="20" as="geometry"/></mxCell><mxCell id="29" value="StackR" style="text;html=1;align=center;verticalAlign=middle;resizable=0;points=[];autosize=1;strokeColor=none;" vertex="1" parent="1"><mxGeometry x="405" y="490" width="50" height="20" as="geometry"/></mxCell><mxCell id="30" value="" style="shape=table;html=1;whiteSpace=wrap;startSize=0;container=1;collapsible=0;childLayout=tableLayout;" vertex="1" parent="1"><mxGeometry x="130" y="630" width="360" height="40" as="geometry"/></mxCell><mxCell id="31" value="" style="shape=partialRectangle;html=1;whiteSpace=wrap;collapsible=0;dropTarget=0;pointerEvents=0;fillColor=none;top=0;left=0;bottom=0;right=0;points=[[0,0.5],[1,0.5]];portConstraint=eastwest;" vertex="1" parent="30"><mxGeometry width="360" height="40" as="geometry"/></mxCell><mxCell id="32" value="" style="shape=partialRectangle;html=1;whiteSpace=wrap;connectable=0;overflow=hidden;fillColor=none;top=0;left=0;bottom=0;right=0;" vertex="1" parent="31"><mxGeometry width="60" height="40" as="geometry"/></mxCell><mxCell id="33" value="" style="shape=partialRectangle;html=1;whiteSpace=wrap;connectable=0;overflow=hidden;fillColor=none;top=0;left=0;bottom=0;right=0;" vertex="1" parent="31"><mxGeometry x="60" width="60" height="40" as="geometry"/></mxCell><mxCell id="34" value="" style="shape=partialRectangle;html=1;whiteSpace=wrap;connectable=0;overflow=hidden;fillColor=none;top=0;left=0;bottom=0;right=0;" vertex="1" parent="31"><mxGeometry x="120" width="60" height="40" as="geometry"/></mxCell><mxCell id="35" value="" style="shape=partialRectangle;html=1;whiteSpace=wrap;connectable=0;overflow=hidden;fillColor=none;top=0;left=0;bottom=0;right=0;" vertex="1" parent="31"><mxGeometry x="180" width="60" height="40" as="geometry"/></mxCell><mxCell id="36" value="" style="shape=partialRectangle;html=1;whiteSpace=wrap;connectable=0;overflow=hidden;fillColor=none;top=0;left=0;bottom=0;right=0;" vertex="1" parent="31"><mxGeometry x="240" width="60" height="40" as="geometry"/></mxCell><mxCell id="37" value="" style="shape=partialRectangle;html=1;whiteSpace=wrap;connectable=0;overflow=hidden;fillColor=none;top=0;left=0;bottom=0;right=0;" vertex="1" parent="31"><mxGeometry x="300" width="60" height="40" as="geometry"/></mxCell><mxCell id="38" value="Queue FIFO" style="text;html=1;align=center;verticalAlign=middle;resizable=0;points=[];autosize=1;strokeColor=none;" vertex="1" parent="1"><mxGeometry x="240" y="690" width="80" height="20" as="geometry"/></mxCell></root></mxGraphModel></diagram><diagram id="FZkbeCr-uouiccugtOmG" name="Q30"><mxGraphModel dx="805" dy="493" grid="1" gridSize="10" guides="1" tooltips="1" connect="1" arrows="1" fold="1" page="1" pageScale="1" pageWidth="850" pageHeight="1100" math="0" shadow="0"><root><mxCell id="Mo6tIq0v1Ggh8XU3wRRy-0"/><mxCell id="Mo6tIq0v1Ggh8XU3wRRy-1" parent="Mo6tIq0v1Ggh8XU3wRRy-0"/><mxCell id="Mo6tIq0v1Ggh8XU3wRRy-2" value="" style="shape=table;html=1;whiteSpace=wrap;startSize=0;container=1;collapsible=0;childLayout=tableLayout;" vertex="1" parent="Mo6tIq0v1Ggh8XU3wRRy-1"><mxGeometry x="380" y="180" width="60" height="160" as="geometry"/></mxCell><mxCell id="Mo6tIq0v1Ggh8XU3wRRy-3" value="" style="shape=partialRectangle;html=1;whiteSpace=wrap;collapsible=0;dropTarget=0;pointerEvents=0;fillColor=none;top=0;left=0;bottom=0;right=0;points=[[0,0.5],[1,0.5]];portConstraint=eastwest;" vertex="1" parent="Mo6tIq0v1Ggh8XU3wRRy-2"><mxGeometry width="60" height="40" as="geometry"/></mxCell><mxCell id="Mo6tIq0v1Ggh8XU3wRRy-4" value="" style="shape=partialRectangle;html=1;whiteSpace=wrap;connectable=0;overflow=hidden;fillColor=none;top=0;left=0;bottom=0;right=0;" vertex="1" parent="Mo6tIq0v1Ggh8XU3wRRy-3"><mxGeometry width="60" height="40" as="geometry"/></mxCell><mxCell id="Mo6tIq0v1Ggh8XU3wRRy-5" value="" style="shape=partialRectangle;html=1;whiteSpace=wrap;collapsible=0;dropTarget=0;pointerEvents=0;fillColor=none;top=0;left=0;bottom=0;right=0;points=[[0,0.5],[1,0.5]];portConstraint=eastwest;" vertex="1" parent="Mo6tIq0v1Ggh8XU3wRRy-2"><mxGeometry y="40" width="60" height="40" as="geometry"/></mxCell><mxCell id="Mo6tIq0v1Ggh8XU3wRRy-6" value="-3" style="shape=partialRectangle;html=1;whiteSpace=wrap;connectable=0;overflow=hidden;fillColor=none;top=0;left=0;bottom=0;right=0;" vertex="1" parent="Mo6tIq0v1Ggh8XU3wRRy-5"><mxGeometry width="60" height="40" as="geometry"/></mxCell><mxCell id="Mo6tIq0v1Ggh8XU3wRRy-7" value="" style="shape=partialRectangle;html=1;whiteSpace=wrap;collapsible=0;dropTarget=0;pointerEvents=0;fillColor=none;top=0;left=0;bottom=0;right=0;points=[[0,0.5],[1,0.5]];portConstraint=eastwest;" vertex="1" parent="Mo6tIq0v1Ggh8XU3wRRy-2"><mxGeometry y="80" width="60" height="40" as="geometry"/></mxCell><mxCell id="Mo6tIq0v1Ggh8XU3wRRy-8" value="0" style="shape=partialRectangle;html=1;whiteSpace=wrap;connectable=0;overflow=hidden;fillColor=none;top=0;left=0;bottom=0;right=0;" vertex="1" parent="Mo6tIq0v1Ggh8XU3wRRy-7"><mxGeometry width="60" height="40" as="geometry"/></mxCell><mxCell id="Mo6tIq0v1Ggh8XU3wRRy-9" value="" style="shape=partialRectangle;html=1;whiteSpace=wrap;collapsible=0;dropTarget=0;pointerEvents=0;fillColor=none;top=0;left=0;bottom=0;right=0;points=[[0,0.5],[1,0.5]];portConstraint=eastwest;" vertex="1" parent="Mo6tIq0v1Ggh8XU3wRRy-2"><mxGeometry y="120" width="60" height="40" as="geometry"/></mxCell><mxCell id="Mo6tIq0v1Ggh8XU3wRRy-10" value="-1" style="shape=partialRectangle;html=1;whiteSpace=wrap;connectable=0;overflow=hidden;fillColor=none;top=0;left=0;bottom=0;right=0;" vertex="1" parent="Mo6tIq0v1Ggh8XU3wRRy-9"><mxGeometry width="60" height="40" as="geometry"/></mxCell></root></mxGraphModel></diagram></mxfile>